# xmcd CD database file
#
# Track frame offsets:
#	150
#	19350
#	33610
#
# Disc length: 689 seconds
#
# Revision: 0
# Processed by: cddbd v1.5.2PL0 Copyright (c) Steve Scherf et al.
# Submitted via: CDex 1.70beta2
#
DISCID=2102af03
DTITLE=Beverly Jo Scott - Maxi CD single - Glory
DYEAR=1991
DGENRE=Blues
TTITLE0=Glory
TTITLE1=One Way Love
TTITLE2=Heavenly Lover
EXTD=YEAR: 1991
EXTT0=
EXTT1=
EXTT2=
PLAYORDER=
